<svg width="84" height="84" viewBox="0 0 84 84" fill="none" xmlns="http://www.w3.org/2000/svg">
<path d="M59 80L53.5 74L47.5 75.5L46.5 83.5H37.5L36.5 75.5L30.5 73.5L25 80L17.5 75.5L20.5 68.5L15.5 63.5L8.5 66.5L3.5 60.5L9.5 54.5L8.5 47.5L0 46.5V37.5L9 36L10 30L4 25L8.5 17.5L15 20L20 16L17.5 8.5L25 4L29.5 9.5L36.5 8.5L37.5 0.5H46.5L47 8.5L54.5 9.5L60 4L66.5 8.5L63.5 15.5L68.5 20.5L75.5 17.5L80.5 24.5L75.5 28.5V36.5L83.5 37.5V46.5L75.5 47.5L74.5 54.5L80.5 59.5L75.5 66.5L68.5 63.5L63.5 68.5L66 75L59 80Z" fill="#607D8B"/>
<path d="M68 42C68 56.3594 56.3594 68 42 68C27.6406 68 16 56.3594 16 42C16 27.6406 27.6406 16 42 16C56.3594 16 68 27.6406 68 42Z" fill="#455A65"/>
<path d="M58.5 56.5C47.3 70.1 31 63 25.5 56.5L36.5 50.5C39 52 41 52 42.5 52C44 52 47.6667 51.3333 48.5 50.5C49.1667 50.8333 52.1 52.5 58.5 56.5Z" fill="#E5E5E5"/>
<path d="M46.1962 20.8801C63.5741 23.7796 65.5753 41.4458 62.6962 49.459L52 42.9327C52.049 40.0176 51.049 38.2856 50.299 36.9866C49.549 35.6875 47.1384 32.8454 46 32.5404C45.9553 31.7964 45.9321 28.4227 46.1962 20.8801Z" fill="#E5E5E5"/>
<path d="M21.7199 49.4587C15.5419 32.9592 29.8407 22.393 38.2199 20.8799L37.916 33.4062C35.367 34.8212 34.367 36.5533 33.617 37.8523C32.867 39.1514 31.611 42.6601 31.916 43.7985C31.294 44.2091 28.384 45.9162 21.7199 49.4587Z" fill="#E5E5E5"/>
</svg>
