<svg width="43" height="52" viewBox="0 0 43 52" fill="none" xmlns="http://www.w3.org/2000/svg">
<path d="M35.5664 5.47852H38.4273V8.90562H35.5664V5.47852Z" fill="#66757F"/>
<path d="M37.2672 5.47852H8.60052C5.43429 5.47852 2.86719 8.04562 2.86719 11.2118V45.6118C2.86719 48.7781 5.43429 51.3452 8.60052 51.3452H37.2672C40.4334 51.3452 43.0005 48.7781 43.0005 45.6118V11.2118C43.0005 8.04562 40.4334 5.47852 37.2672 5.47852Z" fill="#55ACEE"/>
<path d="M34.4 5.47852H5.73333C2.5671 5.47852 0 8.04562 0 11.2118V45.6118C0 48.7781 2.5671 51.3452 5.73333 51.3452H34.4C37.5662 51.3452 40.1333 48.7781 40.1333 45.6118V11.2118C40.1333 8.04562 37.5662 5.47852 34.4 5.47852Z" fill="#CCD6DD"/>
<path d="M35.8341 21.2449C35.8341 22.0375 35.1934 22.6782 34.4008 22.6782H5.73411C4.94291 22.6782 4.30078 22.0375 4.30078 21.2449C4.30078 20.4537 4.94291 19.8115 5.73411 19.8115H34.4008C35.1934 19.8115 35.8341 20.4537 35.8341 21.2449ZM35.8341 28.4115C35.8341 29.2042 35.1934 29.8449 34.4008 29.8449H5.73411C4.94291 29.8449 4.30078 29.2042 4.30078 28.4115C4.30078 27.6189 4.94291 26.9782 5.73411 26.9782H34.4008C35.1934 26.9782 35.8341 27.6189 35.8341 28.4115ZM35.8341 35.5782C35.8341 36.3708 35.1934 37.0115 34.4008 37.0115H5.73411C4.94291 37.0115 4.30078 36.3708 4.30078 35.5782C4.30078 34.7856 4.94291 34.1449 5.73411 34.1449H34.4008C35.1934 34.1449 35.8341 34.7856 35.8341 35.5782ZM24.3674 42.7449C24.3674 43.5375 23.7267 44.1782 22.9341 44.1782H5.73411C4.94291 44.1782 4.30078 43.5375 4.30078 42.7449C4.30078 41.9522 4.94291 41.3115 5.73411 41.3115H22.9341C23.7267 41.3115 24.3674 41.9522 24.3674 42.7449Z" fill="#99AAB5"/>
<path d="M6.93114 12.2592C5.92494 12.2592 5.10938 11.3046 5.10938 10.125C5.10938 8.94676 5.92494 7.99072 6.93114 7.99072C7.93591 7.99072 8.75147 8.94676 8.75147 10.125C8.75147 11.3032 7.93591 12.2592 6.93114 12.2592Z" fill="#292F33"/>
<path d="M7.94451 9.89717C7.86568 9.20917 7.40844 8.76197 6.89961 8.43947C6.20444 7.99943 5.46628 6.99467 5.46628 5.7491C5.46628 4.1667 6.42804 2.74627 7.61628 2.74627C8.80451 2.74627 9.76628 4.04343 9.76628 5.47677H12.6272C12.5971 2.6101 10.3697 0 7.61628 0C4.84421 0 2.59961 2.60723 2.59961 5.7405C2.59961 8.39647 4.09744 10.5723 6.28184 11.3678C7.37118 11.7634 8.03624 10.7271 7.94451 9.89717Z" fill="#66757F"/>
<path d="M15.5308 12.2592C14.5246 12.2592 13.709 11.3046 13.709 10.125C13.709 8.94676 14.5246 7.99072 15.5308 7.99072C16.5355 7.99072 17.3511 8.94676 17.3511 10.125C17.3511 11.3032 16.5355 12.2592 15.5308 12.2592V12.2592Z" fill="#292F33"/>
<path d="M16.5461 9.89717C16.4672 9.20917 16.01 8.76197 15.5012 8.43947C14.806 7.99943 14.0678 6.99467 14.0678 5.7491C14.0678 4.1667 15.0296 2.74627 16.2178 2.74627C17.4061 2.74627 18.3678 4.04343 18.3678 5.47677H21.2288C21.2001 2.6101 18.9713 0 16.2178 0C13.4458 0 11.2012 2.60723 11.2012 5.7405C11.2012 8.39647 12.699 10.5723 14.8834 11.3678C15.9727 11.7634 16.6378 10.7271 16.5461 9.89717Z" fill="#66757F"/>
<path d="M24.1304 12.2592C23.1242 12.2592 22.3086 11.3046 22.3086 10.125C22.3086 8.94676 23.1242 7.99072 24.1304 7.99072C25.1351 7.99072 25.9521 8.94676 25.9521 10.125C25.9507 11.3032 25.1351 12.2592 24.1304 12.2592Z" fill="#292F33"/>
<path d="M25.1442 9.89717C25.0654 9.20917 24.6082 8.76197 24.1008 8.43947C23.4056 7.99943 22.6674 6.99467 22.6674 5.7491C22.6674 4.1667 23.6292 2.74627 24.8174 2.74627C26.0057 2.74627 26.9674 4.04343 26.9674 5.47677H29.8284C29.7997 2.6101 27.5709 0 24.8174 0C22.0454 0 19.8008 2.60723 19.8008 5.7405C19.8008 8.39647 21.2986 10.5723 23.483 11.3678C24.5709 11.7634 25.236 10.7271 25.1442 9.89717V9.89717Z" fill="#66757F"/>
<path d="M32.7319 12.2592C31.7257 12.2592 30.9102 11.3046 30.9102 10.125C30.9102 8.94676 31.7257 7.99072 32.7319 7.99072C33.7367 7.99072 34.5537 8.94676 34.5537 10.125C34.5523 11.3032 33.7367 12.2592 32.7319 12.2592Z" fill="#292F33"/>
<path d="M33.7439 9.89717C33.665 9.20917 33.2078 8.76197 32.7004 8.43947C32.0052 7.99943 31.2671 6.99467 31.2671 5.7491C31.2671 4.1667 32.2288 2.74627 33.4171 2.74627C34.6053 2.74627 35.5671 4.04343 35.5671 5.47677H38.428C38.3993 2.6101 36.1705 0 33.4171 0C30.645 0 28.4004 2.60723 28.4004 5.7405C28.4004 8.39647 29.8982 10.5723 32.0826 11.3678C33.1705 11.7634 33.8356 10.7271 33.7439 9.89717V9.89717Z" fill="#66757F"/>
</svg>
